<svg width="12" height="8" viewBox="0 0 12 8" fill="none" xmlns="http://www.w3.org/2000/svg">
<path d="M10.9742 5.41495L6.68419 1.17495C6.59123 1.08122 6.48063 1.00683 6.35877 0.956058C6.23691 0.905289 6.1062 0.87915 5.97419 0.87915C5.84218 0.87915 5.71147 0.905289 5.58961 0.956058C5.46776 1.00683 5.35715 1.08122 5.26419 1.17495L1.02419 5.41495C0.930463 5.50791 0.856069 5.61851 0.8053 5.74037C0.754532 5.86223 0.728394 5.99294 0.728394 6.12495C0.728394 6.25696 0.754532 6.38767 0.8053 6.50953C0.856069 6.63138 0.930463 6.74199 1.02419 6.83495C1.21155 7.0212 1.46501 7.12574 1.72919 7.12574C1.99338 7.12574 2.24683 7.0212 2.43419 6.83495L5.97419 3.29495L9.51419 6.83495C9.70045 7.01969 9.95185 7.12384 10.2142 7.12495C10.3458 7.12571 10.4763 7.10048 10.5981 7.05072C10.7199 7.00096 10.8308 6.92763 10.9242 6.83495C11.0213 6.74533 11.0996 6.63736 11.1547 6.51729C11.2098 6.39721 11.2406 6.26741 11.2453 6.13537C11.2499 6.00334 11.2283 5.87169 11.1818 5.74804C11.1353 5.62438 11.0647 5.51117 10.9742 5.41495Z" fill="#2C9AB7"/>
</svg>
