<svg width="12" height="8" viewBox="0 0 12 8" fill="none" xmlns="http://www.w3.org/2000/svg">
<path d="M1.00005 2.58993L5.29005 6.82993C5.38301 6.92366 5.49362 6.99806 5.61547 7.04883C5.73733 7.09959 5.86804 7.12573 6.00005 7.12573C6.13206 7.12573 6.26277 7.09959 6.38463 7.04883C6.50649 6.99806 6.61709 6.92366 6.71005 6.82993L10.9501 2.58993C11.0438 2.49697 11.1182 2.38637 11.1689 2.26451C11.2197 2.14265 11.2458 2.01195 11.2458 1.87993C11.2458 1.74792 11.2197 1.61722 11.1689 1.49536C11.1182 1.3735 11.0438 1.2629 10.9501 1.16993C10.7627 0.983683 10.5092 0.879142 10.2451 0.879142C9.98087 0.879142 9.72741 0.983683 9.54005 1.16993L6.00005 4.70993L2.46005 1.16993C2.27379 0.98519 2.02239 0.881039 1.76005 0.879934C1.62844 0.879173 1.49798 0.904398 1.37614 0.954163C1.25431 1.00393 1.14349 1.07725 1.05005 1.16993C0.952976 1.25955 0.874622 1.36752 0.819515 1.48759C0.764408 1.60767 0.733642 1.73747 0.728992 1.86951C0.724343 2.00154 0.745904 2.13319 0.792429 2.25685C0.838954 2.3805 0.90952 2.49371 1.00005 2.58993Z" fill="#2C9AB7"/>
</svg>
