<?xml version="1.0" encoding="UTF-8" standalone="no"?>
<!-- Created with Inkscape (http://www.inkscape.org/) -->

<svg
   width="4.7624998mm"
   height="5.2916665mm"
   viewBox="0 0 4.7624998 5.2916665"
   version="1.1"
   id="svg5"
   xmlns="http://www.w3.org/2000/svg"
   xmlns:svg="http://www.w3.org/2000/svg">
  <defs
     id="defs2">
    <filter
       style="color-interpolation-filters:sRGB;"
       id="filter6720"
       x="0"
       y="0"
       width="1"
       height="1">
      <feColorMatrix
         values="1 0 0 0 0 0 1 0 0 0 0 0 1 0 0 0 0 0 1000 -379 "
         result="colormatrix"
         id="feColorMatrix6716" />
      <feComposite
         in2="colormatrix"
         operator="arithmetic"
         k2="1"
         result="composite"
         id="feComposite6718" />
    </filter>
  </defs>
  <g
     id="layer1"
     transform="translate(-9.7850151,-124.02646)">
    <g
       style="fill:none"
       id="g26"
       transform="matrix(0.26458333,0,0,0.26458333,9.7850151,124.02646)">
      <path
         d="M 16,18 H 2 V 7 H 16 Z M 13,0 V 2 H 5 V 0 H 3 V 2 H 2 C 0.89,2 0,2.89 0,4 v 14 c 0,0.5304 0.210714,1.0391 0.585786,1.4142 C 0.960859,19.7893 1.46957,20 2,20 h 14 c 0.5304,0 1.0391,-0.2107 1.4142,-0.5858 C 17.7893,19.0391 18,18.5304 18,18 V 4 C 18,2.89 17.1,2 16,2 H 15 V 0 Z m 1,11 H 9 v 5 h 5 z"
         fill="#000000"
         fill-opacity="0.38"
         id="path17"
         style="filter:url(#filter6720)" />
    </g>
  </g>
</svg>
