<?xml version="1.0" encoding="UTF-8" standalone="no"?>
<svg
   width="1097.9852"
   height="277.91489"
   viewBox="0 0 1097.9852 277.91489"
   fill="none"
   version="1.1"
   id="svg19"
   sodipodi:docname="logo1.svg"
   inkscape:version="1.2-dev (9a8a3d57, 2021-11-25)"
   xmlns:inkscape="http://www.inkscape.org/namespaces/inkscape"
   xmlns:sodipodi="http://sodipodi.sourceforge.net/DTD/sodipodi-0.dtd"
   xmlns="http://www.w3.org/2000/svg"
   xmlns:svg="http://www.w3.org/2000/svg">
  <defs
     id="defs23" />
  <sodipodi:namedview
     id="namedview21"
     pagecolor="#ffffff"
     bordercolor="#000000"
     borderopacity="0.25"
     inkscape:pageshadow="2"
     inkscape:pageopacity="0.0"
     inkscape:pagecheckerboard="true"
     inkscape:blackoutopacity="0.0"
     showgrid="false"
     inkscape:zoom="0.41483522"
     inkscape:cx="1008.8343"
     inkscape:cy="492.96682"
     inkscape:window-width="1920"
     inkscape:window-height="1013"
     inkscape:window-x="-9"
     inkscape:window-y="-9"
     inkscape:window-maximized="1"
     inkscape:current-layer="svg19"
     units="px"
     width="1110px"
     fit-margin-top="0"
     fit-margin-left="0"
     fit-margin-right="0"
     fit-margin-bottom="0"
     lock-margins="false" />
  <g
     id="g8114"
     transform="matrix(11.57387,0,0,11.57387,541.21215,-44.683699)"
     inkscape:export-filename="C:\Users\dssul\whatToSale\whatToSale\src\img\1-95x24.webp"
     inkscape:export-xdpi="96"
     inkscape:export-ydpi="96">
    <g
       style="fill:none"
       id="g320"
       transform="translate(-46.761554,3.8574814)">
      <path
         d="m 2.71306,5.40497 v 1.53811 c 0,0.68361 0.1709,1.17495 0.5127,1.47403 0.35604,0.29907 0.91147,0.44861 1.66628,0.44861 0.85451,0 1.54523,-0.1353 2.07218,-0.40589 V 5.40497 c 0,-0.37028 0.12818,-0.69072 0.38453,-0.96131 0.27059,-0.2706 0.59103,-0.40589 0.96132,-0.40589 0.38452,0 0.71208,0.13529 0.98268,0.40589 0.27059,0.27059 0.40589,0.59103 0.40589,0.96131 v 7.88283 c 0,0.3703 -0.1353,0.6907 -0.40589,0.9613 -0.2706,0.2706 -0.59816,0.4059 -0.98268,0.4059 -0.37029,0 -0.69073,-0.1353 -0.96132,-0.4059 C 7.0924,13.9785 6.96422,13.6581 6.96422,13.2878 v -2.649 C 6.08123,11.0661 5.07719,11.2797 3.95209,11.2797 2.58488,11.2797 1.58084,11.002 0.939956,10.4466 0.313319,9.87689 0,9.02238 0,7.88304 V 5.40497 C 0,5.03469 0.135297,4.71425 0.40589,4.44366 0.676484,4.17306 0.996923,4.03777 1.36721,4.03777 c 0.37028,0 0.6836,0.13529 0.93996,0.40589 0.27059,0.27059 0.40589,0.59103 0.40589,0.96131 z"
         fill="#000000"
         id="path290" />
      <path
         d="m 19.1933,0.0215897 c 2.1221,-0.02848317 3.9023,0.6693633 5.3407,2.0935403 1.4384,1.40993 2.1434,3.16879 2.1149,5.27657 0.0285,2.10778 -0.6765,3.8738 -2.1149,5.2979 -1.4384,1.41 -3.2186,2.1007 -5.3407,2.0722 C 17.0855,14.7903 15.3124,14.0924 13.874,12.6683 12.4356,11.2441 11.7306,9.48524 11.7591,7.3917 11.7306,5.29816 12.4356,3.5393 13.874,2.11513 15.3124,0.690953 17.0855,-0.00689347 19.1933,0.0215897 Z m 3.119,4.0161803 c -0.7976,-0.88299 -1.8372,-1.32449 -3.119,-1.32449 -1.2817,0 -2.3214,0.4415 -3.1189,1.32449 -0.7976,0.88298 -1.1963,2.00096 -1.1963,3.35393 0,1.35297 0.3987,2.47095 1.1963,3.3539 0.7975,0.883 1.8372,1.3862 3.1189,1.3862 1.2818,0 2.3214,-0.5032 3.119,-1.3862 0.8118,-0.88295 1.2176,-2.00093 1.2176,-3.3539 0,-1.35297 -0.4058,-2.47095 -1.2176,-3.35393 z"
         fill="#000000"
         id="path292" />
      <path
         d="m 38.1345,13.2878 c 0,0.3988 -0.1282,0.7263 -0.3845,0.9827 -0.2564,0.2563 -0.5768,0.3845 -0.9614,0.3845 -0.4272,0 -0.7761,-0.1567 -1.0467,-0.47 l -3.0335,-3.6316 -1.2818,1.1963 v 1.5381 c 0,0.3703 -0.1353,0.6907 -0.4059,0.9613 -0.2706,0.2706 -0.591,0.4059 -0.9613,0.4059 -0.3703,0 -0.6907,-0.1353 -0.9613,-0.4059 -0.2564,-0.2706 -0.3845,-0.591 -0.3845,-0.9613 V 5.40497 c 0,-0.37028 0.1281,-0.69072 0.3845,-0.96131 0.2706,-0.2706 0.5981,-0.40589 0.9827,-0.40589 0.3703,0 0.6836,0.13529 0.9399,0.40589 0.2706,0.27059 0.4059,0.59103 0.4059,0.96131 v 3.33258 l 4.2725,-4.33662 c 0.2421,-0.24211 0.5412,-0.36316 0.8973,-0.36316 0.356,0 0.6551,0.12817 0.8972,0.38452 0.2421,0.24211 0.3632,0.53407 0.3632,0.87587 0,0.35605 -0.1211,0.65512 -0.3632,0.89723 l -2.7985,2.73442 3.1617,3.52479 c 0.1851,0.1852 0.2777,0.4629 0.2777,0.8332 z"
         fill="#000000"
         id="path294" />
      <path
         d="m 40.8722,16.2999 0.1282,-0.0213 c 0.7121,-0.0143 1.1821,-0.2635 1.4099,-0.7477 L 42.7949,14.655 39.2487,5.87495 c -0.057,-0.11393 -0.0855,-0.27771 -0.0855,-0.49134 0,-0.37028 0.1282,-0.6836 0.3846,-0.93995 0.2563,-0.2706 0.5696,-0.40589 0.9399,-0.40589 0.6409,0 1.0539,0.27771 1.239,0.83314 l 2.4781,6.57969 2.4567,-6.57969 c 0.2136,-0.55543 0.6338,-0.83314 1.2604,-0.83314 0.3845,0 0.705,0.13529 0.9613,0.40589 0.2564,0.25635 0.3846,0.56967 0.3846,0.93995 0,0.15666 -0.0357,0.32756 -0.1069,0.5127 l -4.187,10.29679 c -0.6409,1.6378 -1.8871,2.471 -3.7385,2.4994 -0.1567,0 -0.2564,-0.0071 -0.2991,-0.0213 -0.356,-0.0143 -0.648,-0.1353 -0.8758,-0.3632 -0.2279,-0.2279 -0.3418,-0.5127 -0.3418,-0.8545 0,-0.3276 0.1139,-0.5982 0.3418,-0.8118 0.2278,-0.2136 0.4984,-0.3275 0.8117,-0.3418 z"
         fill="#000000"
         id="path296" />
      <path
         d="M 58.0214,13.2878 V 6.55856 h -4.2725 v 6.72924 c 0,0.3703 -0.1353,0.6907 -0.4059,0.9613 -0.2563,0.2706 -0.5697,0.4059 -0.9399,0.4059 -0.3846,0 -0.7121,-0.1353 -0.9827,-0.4059 -0.2564,-0.2706 -0.3846,-0.591 -0.3846,-0.9613 V 5.7895 c 0,-1.06813 0.5341,-1.6022 1.6022,-1.6022 h 6.4943 c 0.5127,0 0.9043,0.14242 1.1749,0.42726 0.2849,0.27059 0.4273,0.66224 0.4273,1.17494 v 7.4983 c 0,0.3703 -0.1353,0.6907 -0.4059,0.9613 -0.2706,0.2706 -0.591,0.4059 -0.9613,0.4059 -0.3703,0 -0.6908,-0.1353 -0.9613,-0.4059 -0.2564,-0.2706 -0.3846,-0.591 -0.3846,-0.9613 z"
         fill="#000000"
         id="path298" />
      <path
         d="M 63.4278,13.0314 V 5.40497 c 0,-0.37028 0.1282,-0.69072 0.3846,-0.96131 0.2706,-0.2706 0.5981,-0.40589 0.9827,-0.40589 0.3702,0 0.6836,0.13529 0.9399,0.40589 0.2706,0.27059 0.4059,0.59103 0.4059,0.96131 v 5.14843 l 3.8453,-5.74658 c 0.3275,-0.5127 0.8046,-0.76905 1.4313,-0.76905 0.47,0 0.8687,0.1709 1.1963,0.5127 0.3418,0.32756 0.5127,0.72633 0.5127,1.19631 v 7.54102 c 0,0.3703 -0.1353,0.6907 -0.4059,0.9613 -0.2706,0.2706 -0.591,0.4059 -0.9613,0.4059 -0.3703,0 -0.6907,-0.1353 -0.9613,-0.4059 -0.2564,-0.2706 -0.3846,-0.591 -0.3846,-0.9613 V 7.9044 l -3.9948,6.0243 c -0.3133,0.4842 -0.769,0.7263 -1.3672,0.7263 -0.4415,0 -0.826,-0.1567 -1.1536,-0.47 -0.3133,-0.3275 -0.47,-0.7121 -0.47,-1.1536 z"
         fill="#000000"
         id="path300" />
      <path
         d="M 77.7211,13.2878 V 6.55856 h -1.8372 c -0.3275,0 -0.6124,-0.11394 -0.8545,-0.34181 -0.2278,-0.22786 -0.3418,-0.50558 -0.3418,-0.83314 0,-0.32756 0.114,-0.60527 0.3418,-0.83314 0.2421,-0.24211 0.527,-0.36317 0.8545,-0.36317 h 6.4302 c 0.3275,0 0.6053,0.12106 0.8331,0.36317 0.2421,0.22787 0.3632,0.50558 0.3632,0.83314 0,0.31332 -0.1211,0.59103 -0.3632,0.83314 -0.2278,0.22787 -0.5056,0.34181 -0.8331,0.34181 h -1.8586 v 6.72924 c 0,0.3703 -0.1353,0.6907 -0.4059,0.9613 -0.2705,0.2706 -0.591,0.4059 -0.9613,0.4059 -0.3703,0 -0.6907,-0.1353 -0.9613,-0.4059 -0.2706,-0.2706 -0.4059,-0.591 -0.4059,-0.9613 z"
         fill="#000000"
         id="path302" />
      <path
         d="m 87.7539,5.40497 v 2.05082 h 3.4607 c 1.1536,0 2.0508,0.3418 2.6917,1.0254 0.6409,0.68361 0.9613,1.51675 0.9613,2.49941 0,0.9542 -0.3346,1.7802 -1.004,2.4781 -0.6551,0.6978 -1.5381,1.0468 -2.649,1.0468 H 86.643 c -1.0681,0 -1.6022,-0.5412 -1.6022,-1.6236 V 5.40497 c 0,-0.37028 0.1282,-0.69072 0.3846,-0.96131 0.2705,-0.2706 0.591,-0.40589 0.9613,-0.40589 0.3703,0 0.6907,0.13529 0.9613,0.40589 0.2706,0.27059 0.4059,0.59103 0.4059,0.96131 z m 0,4.31526 v 2.49947 h 3.0548 c 0.3988,0 0.7121,-0.114 0.94,-0.3418 0.2279,-0.2279 0.3418,-0.527 0.3418,-0.8973 0,-0.3845 -0.1139,-0.6907 -0.3418,-0.9186 -0.2136,-0.22784 -0.527,-0.34177 -0.94,-0.34177 z"
         fill="#000000"
         id="path304" />
    </g>
    <g
       style="fill:none"
       id="g339"
       transform="translate(-18.764293,7.8538657)">
      <path
         fill-rule="evenodd"
         clip-rule="evenodd"
         d="M 3.42205,1.25774 C 3.39094,0.948004 3.25802,0.675771 3.02329,0.441046 2.76694,0.170453 2.45362,0.0351562 2.08333,0.0351562 1.69881,0.0351562 1.37125,0.170453 1.10065,0.441046 0.844301,0.711639 0.716125,1.03208 0.716125,1.40236 v 7.88282 c 0,0.37028 0.128176,0.69072 0.384525,0.96132 0.2706,0.2706 0.59104,0.4059 0.96132,0.4059 0.37029,0 0.69073,-0.1353 0.96132,-0.4059 0.23473,-0.2347 0.36765,-0.50696 0.39876,-0.8167 z"
         fill="#cd3232"
         id="path330" />
    </g>
    <circle
       cx="-16.697805"
       cy="5.4779749"
       r="1.58242"
       fill="#cd3232"
       id="circle17"
       style="fill:#cd3232;fill-opacity:1" />
    <g
       style="fill:none"
       id="g358"
       transform="translate(-35.785608,3.8325414)">
      <path
         fill-rule="evenodd"
         clip-rule="evenodd"
         d="M 8.29411,0.0290837 C 10.4161,6.00515e-4 12.1964,0.698447 13.6348,2.12262 c 1.4384,1.40994 2.1434,3.16879 2.1149,5.27657 0.0285,2.10778 -0.6765,3.87381 -2.1149,5.29791 -1.0682,1.0471 -2.3249,1.6975 -3.77011,1.9513 v 4.5656 c 0,1.1067 -3.16484,1.1067 -3.16484,0 v -6.5546 c 0,0 0,-0.7912 0.52748,-0.6594 0.26204,0.0656 0.91465,0.0985 1.50507,0.1151 0.80962,-0.1444 1.9157,-0.6297 2.5771,-1.362 0.8118,-0.88296 1.1868,-2.00094 1.1868,-3.35391 0,-1.35296 -0.375,-2.47094 -1.1868,-3.35393 C 10.5183,3.19308 9.5952,2.79748 8.29411,2.72078 7.01235,2.72078 5.9727,3.16227 5.17516,4.04526 4.56832,4.71712 4.19235,5.52503 4.04725,6.46899 4.00166,6.76562 3.535,7.25282 2.34819,7.25282 0.870487,7.25282 0.736296,6.77134 0.765771,6.46899 0.930475,4.77941 1.65558,3.31796 2.87566,2.10997 4.31408,0.685791 5.77676,3.08063e-5 8.29411,0.0290837 Z M 2.34819,7.25282 C 2.4027,7.28427 2.45803,7.32147 2.51406,7.36381 H 2.43005 C 2.40518,7.32539 2.37795,7.28836 2.34819,7.25282 Z"
         fill="#cd3232"
         id="path349" />
    </g>
    <g
       style="fill:#cd3232;fill-opacity:1"
       id="g266"
       transform="translate(-29.59607,24.708168)">
      <circle
         cx="2.09548"
         cy="1.58242"
         r="1.58242"
         fill="#cd3232"
         id="circle257"
         style="fill:#cd3232;fill-opacity:1" />
    </g>
  </g>
</svg>
