<?xml version="1.0" encoding="UTF-8" standalone="no"?>
<!-- Created with Inkscape (http://www.inkscape.org/) -->

<svg
   width="68.121475mm"
   height="48.423218mm"
   viewBox="0 0 68.121475 48.423218"
   version="1.1"
   id="svg340"
   sodipodi:docname="mainPage.svg"
   inkscape:version="1.2-dev (9a8a3d57, 2021-11-25)"
   xmlns:inkscape="http://www.inkscape.org/namespaces/inkscape"
   xmlns:sodipodi="http://sodipodi.sourceforge.net/DTD/sodipodi-0.dtd"
   xmlns="http://www.w3.org/2000/svg"
   xmlns:svg="http://www.w3.org/2000/svg">
  <sodipodi:namedview
     id="namedview338"
     pagecolor="#ffffff"
     bordercolor="#000000"
     borderopacity="0.25"
     inkscape:pageshadow="2"
     inkscape:pageopacity="0.0"
     inkscape:pagecheckerboard="true"
     inkscape:blackoutopacity="0.0"
     inkscape:document-units="mm"
     showgrid="false"
     inkscape:zoom="3.1056719"
     inkscape:cx="129.60158"
     inkscape:cy="91.284594"
     inkscape:window-width="1920"
     inkscape:window-height="1013"
     inkscape:window-x="-9"
     inkscape:window-y="-9"
     inkscape:window-maximized="1"
     inkscape:current-layer="svg340"
     showborder="true"
     inkscape:showpageshadow="true" />
  <defs
     id="defs337" />
  <g
     id="layer1"
     transform="translate(-0.67163555,-0.83658427)">
    <g
       id="g386"
       transform="translate(-57.767019,-63.693976)">
      <g
         style="fill:none"
         id="g361"
         transform="matrix(0.26458333,0,0,0.26458333,60.734706,64.530559)">
        <path
           fill-rule="evenodd"
           clip-rule="evenodd"
           d="m 174.224,2.05513 c 26.782,-5.99473 51.593,1.11802 64.929,21.43457 13.336,20.3161 9.847,52.5544 6.959,66.7844 -2.889,14.2299 -10.217,27.2639 -19.313,38.5789 -16.893,21.017 -39.722,37.1 -65.243,45.782 -25.521,8.681 -53.23,10.462 -79.8258,6.07 C 66.8108,178.241 20.142,166.171 10.0678,129.747 -0.00631654,93.3228 -6.38198,62.1917 15.4337,49.5461 37.2492,36.9001 52.3604,46.4116 63.16,51.0887 113.616,72.9399 147.443,8.05027 174.224,2.05513 Z"
           fill="#64fcd9"
           id="path352" />
      </g>
      <g
         style="fill:none"
         id="g380"
         transform="matrix(0.26458333,0,0,0.26458333,58.438654,64.785186)">
        <path
           fill-rule="evenodd"
           clip-rule="evenodd"
           d="m 39.3524,141.196 c 0.1291,1.495 -1.932,2.001 -3.4331,2.007 -7.8,0.031 -15.5924,1.478 -22.8834,4.249 -1.1128,0.423 -2.3038,0.956 -2.8452,2.016 -0.71741,1.404 0.0654,3.2 1.334,4.135 1.269,0.936 2.8882,1.221 4.4442,1.474 40.4398,6.585 81.481,9.472 122.4451,8.612 l 0.658,-0.015 c 4.725,-0.108 9.546,-0.363 13.874,-2.233 -3.583,-2.512 -7.165,-5.023 -10.749,-7.534 6.203,-1.239 12.603,-0.357 18.897,0.265 14.406,1.422 28.95,1.451 43.361,0.087 -1.014,1.621 -3.245,1.846 -5.157,1.887 -18.128,0.39 -36.279,-0.254 -54.334,-1.928 2.356,1.55 4.711,3.101 7.067,4.651 0.854,0.561 1.798,1.274 1.847,2.295 0.074,1.534 -1.81,2.299 -3.325,2.55 -5.028,0.831 -10.143,0.963 -15.238,1.037 -39.7953,0.582 -79.6397,-2.265 -118.9473,-8.5 -1.9181,-0.304 -3.9053,-0.644 -5.5047,-1.746 -1.59945,-1.101 -2.68954,-3.196 -2.01766,-5.018 0.66846,-1.813 2.70256,-2.663 4.53866,-3.263 8.4027,-2.745 17.1484,-4.438 25.9684,-5.028 z M 93.0007,5.8886 c 0.0831,18.319 0.1663,36.638 0.2498,54.957 0.0199,4.3602 0.8787,9.8775 5.0954,10.9878 5.8261,-2.6894 12.3931,-3.752 18.7711,-3.0367 3.651,0.4093 7.442,1.5129 9.913,4.231 3.39,3.728 3.396,9.3433 3.032,14.3694 -0.738,10.1877 -2.192,20.3239 -4.346,30.3089 1.712,-0.108 3.458,0.578 4.637,1.824 -1.817,0.83 -3.98,0.865 -5.822,0.093 1.265,6.858 -4.322,13.624 -11.013,15.588 -6.691,1.965 -13.9517,0.112 -20.2434,-2.894 -0.5904,2.297 2.4839,3.648 4.8307,3.994 5.9577,0.881 11.9157,1.762 17.8737,2.642 -7.358,0.221 -14.74,-0.381 -21.9642,-1.792 -1.3306,1.884 1.6821,3.787 3.9589,4.155 6.0383,0.977 12.0773,1.954 18.1163,2.932 -6.821,-0.046 -13.639,-0.5 -20.4049,-1.361 4.3032,3.881 10.1769,5.969 15.9649,5.672 -3.265,1.074 -6.892,1.009 -10.117,-0.18 4.034,5.402 12.288,6.403 18.315,3.381 6.026,-3.021 9.962,-9.203 11.887,-15.664 1.925,-6.462 2.112,-13.291 2.453,-20.024 0.63,-12.429 1.833,-24.8418 4.01,-37.0952 1.467,-8.2511 5.068,-18.0899 13.367,-19.2559 -14.785,-0.6815 -29.585,-1.0487 -44.386,-1.1023 -4.497,-0.016 -10.084,0.7196 -11.5859,4.9591 -1.2842,0.1333 -0.9976,-2.0447 -0.0245,-2.8933 3.6331,-3.1668 8.9264,-3.2833 13.7464,-3.2339 l 32.339,0.3309 c 10.444,0.1067 22.97,1.4314 27.698,10.7448 -0.137,-2.768 2.372,-5.3798 5.143,-5.3545 3.022,0.0278 5.55,-2.5941 6.432,-5.4849 0.882,-2.8907 0.493,-5.9967 0.096,-8.993 -4.873,-4.7184 -6.149,-12.7396 -2.98,-18.7372 0.896,-1.6965 2.22,-5.7414 9.616,-8.3448 4.931,-1.7357 9.805,-1.545 14.621,0.5727 9.047,-1.7497 15.263,-1.1285 18.649,1.8623 5.08,4.4868 5.178,8.1638 2.254,11.4276 3.305,-1.2922 7.19,0.8993 8.845,4.0382 1.655,3.1385 1.569,6.899 1.071,10.4127 -1.234,8.7009 -4.781,17.0635 -10.179,23.9975 l -0.745,2.1932 c 13.06,3.3668 23.625,14.91 25.825,28.216 -4.342,-9.7865 -10.22,-20.151 -20.347,-23.6254 -2.285,2.397 -4.635,4.8983 -5.708,8.0312 -1.073,3.133 -0.493,7.0915 2.228,8.9791 -1.709,0.3959 -3.418,0.7921 -5.127,1.1884 0.568,1.009 1.137,2.0177 1.706,3.0267 -6.458,4.91 -7.201,14.196 -7.162,22.309 0.039,8.112 -0.108,17.261 -5.994,22.845 -5.246,4.976 -13.253,5.317 -20.48,5.087 -17.77,-0.564 -35.486,-2.822 -52.829,-6.734 -1.474,-0.333 -3.342,-0.536 -4.192,0.714 -6.152,9.046 -19.018,9.854 -29.928,9.067 -14.0155,-1.011 -27.9498,-3.137 -41.6292,-6.35 -7.7591,-1.823 -15.9988,-4.36 -20.8325,-10.698 -5.6351,-7.388 -4.9844,-17.631 -4.0699,-26.878 -5.5557,3.089 -12.142,4.285 -18.4291,3.346 6.6272,-4.332 9.8408,-12.621 9.9012,-20.5388 0.0603,-7.9173 -2.5823,-15.592 -5.5229,-22.9434 -6.4782,3.7576 -9.8868,11.6778 -9.3795,19.1499 0.5068,7.4717 4.4711,14.4073 9.7901,19.6793 C 13.4381,105.849 9.09939,98.3938 8.74026,90.6487 8.38113,82.9032 12.0117,75.0791 18.1574,70.3518 17.1754,66.9934 12.1087,66.5828 9.45303,68.8616 6.79758,71.1401 5.9642,74.8386 5.28109,78.2708 4.01891,84.6119 2.75153,91.1011 3.6686,97.5013 4.58566,103.901 8.12109,110.308 14.0453,112.898 11.277,114.894 7.58923,112.021 5.75054,109.145 -1.7059,97.4848 -1.93108,81.592 5.19201,69.7251 6.04767,68.2995 7.03492,66.8947 8.4284,65.9878 9.90543,65.026 11.7061,64.7099 13.4621,64.5542 20.3873,63.941 27.4927,65.5573 33.4713,69.1064 33.4177,49.6758 33.3645,30.2453 33.3109,10.8147 33.3079,9.70188 33.3231,8.5211 33.9165,7.57959 34.7744,6.21819 36.5321,5.79618 38.1142,5.50078 52.506,2.81427 67.0606,1.00216 81.6714,0.0783837 86.4456,-0.223353 92.9792,1.10513 93.0007,5.8886 Z M 83.2426,1.24904 C 67.7515,1.97827 52.3165,3.89334 37.117,6.9719 c -0.6469,0.13082 -1.3319,0.28401 -1.802,0.74696 -0.6406,0.6309 -0.69,1.63064 -0.6984,2.52954 -0.1815,19.3478 -0.1047,38.6978 0.23,58.0431 1.8602,-0.4638 3.7204,-0.9276 5.5802,-1.3914 -0.7271,-3.9694 -1.4572,-7.9928 -1.1462,-12.0167 0.3106,-4.0234 1.7872,-8.1156 4.8244,-10.7734 3.2871,-2.8765 7.8743,-3.6892 12.2316,-3.9952 4.1897,-0.2941 8.4051,-0.2258 12.5834,0.2034 4.2653,0.4385 8.7584,1.3859 11.8353,4.3716 4.445,4.3134 4.5172,11.301 4.2867,17.4902 -0.6106,16.4305 -1.2217,32.861 -1.8323,49.291 -0.1435,3.857 -0.2954,7.766 -1.4306,11.455 -1.1348,3.688 -3.3879,7.194 -6.7965,9.004 -3.3448,1.777 -7.3472,1.726 -11.1102,1.299 -3.5926,-0.409 -7.1505,-1.121 -10.6237,-2.127 -2.1096,-0.611 -4.2205,-1.347 -6.0136,-2.616 -5.9326,-4.198 -6.634,-12.576 -6.7783,-19.842 -2.278,-0.411 -4.505,1.322 -5.4456,3.437 -0.9403,2.115 -0.8989,4.519 -0.8402,6.833 0.1455,5.772 0.3705,11.833 3.3174,16.799 4.5467,7.662 14.0963,10.492 22.8159,12.322 15.4763,3.247 31.1894,5.365 46.9737,6.33 -7.044,-3.587 -13.2898,-9.728 -14.7753,-17.492 -0.4038,-2.109 -0.4469,-4.268 -0.4891,-6.415 C 91.1911,88.4766 90.3686,46.496 89.5461,4.51497 89.4942,1.86011 85.8949,1.12412 83.2426,1.24904 Z M 143.293,70.1737 c -0.391,0.9558 -0.676,2.0159 -0.415,3.0152 0.26,0.9993 1.231,1.8721 2.25,1.7024 4.563,-0.76 9.482,1.4876 11.894,5.4346 1.991,3.2571 2.267,7.2417 2.491,11.052 l 2.041,34.7081 c 0.218,3.709 0.326,7.791 -1.98,10.704 -2.99,3.781 -8.607,3.907 -13.404,3.438 -3.959,-0.387 -8.123,-1.046 -11.197,-3.571 0.109,1.47 -0.319,2.973 -1.186,4.165 -1.071,1.47 0.657,3.406 2.338,4.101 2.053,0.85 4.285,1.146 6.488,1.431 10.091,1.31 20.188,2.573 30.291,3.79 7.776,0.936 15.676,1.842 23.407,0.586 -4.891,-1.373 -9.571,-3.494 -13.827,-6.267 -2.123,-1.383 -4.176,-2.964 -5.624,-5.044 -2.364,-3.395 -2.862,-7.709 -3.256,-11.827 -1.169,-12.246 -2.04,-24.52 -2.61,-36.8087 -0.421,-9.0635 -3.327,-17.9995 -8.319,-25.5767 -0.892,-1.355 -1.984,-2.7608 -3.562,-3.138 -6.274,-1.4999 -13.372,2.137 -15.82,8.1051 z m -28.768,78.4343 c 0.532,0.091 1.078,0.21 1.517,0.524 0.438,0.315 0.744,0.874 0.609,1.396 -0.135,0.523 -0.825,0.867 -1.26,0.548 -0.481,-0.351 -1.121,-0.364 -1.694,-0.526 -0.573,-0.162 -1.174,-0.638 -1.071,-1.224 0.131,-0.744 1.154,-0.844 1.899,-0.718 z m -22.0957,0.221 c 0.66,0.137 1.4332,0.608 1.2977,1.269 -0.119,0.582 -0.8398,0.776 -1.4294,0.855 -0.6608,0.088 -1.366,0.17 -1.9661,-0.12 -0.5997,-0.291 -0.9888,-1.111 -0.5955,-1.648 0.2655,-0.363 0.7622,-0.46 1.2116,-0.478 0.4963,-0.02 0.9951,0.021 1.4817,0.122 z m 39.5037,-7.343 c -0.627,0.452 -1.057,1.118 -1.5,1.751 -2.016,2.889 -4.57,5.399 -7.494,7.364 0.073,0.31 0.538,0.232 0.814,0.072 3.384,-1.961 5.8,-5.201 8.118,-8.351 0.189,-0.258 0.346,-0.69 0.062,-0.836 z m 30.265,-78.0278 c 1.806,2.1325 3.625,4.2851 4.947,6.7471 1.432,2.6697 2.236,5.6275 2.884,8.5866 3.624,16.5546 2.657,33.7651 5.005,50.5481 0.424,3.029 0.984,6.121 2.56,8.742 1.846,3.07 4.909,5.198 8.031,6.956 2.524,1.423 5.158,2.672 7.93,3.514 4.409,1.34 9.704,1.434 13.083,-1.698 1.898,-1.759 2.896,-4.268 3.676,-6.735 3.342,-10.574 3.709,-22.071 1.049,-32.836 0.067,6.439 0.903,12.862 0.712,19.299 -0.191,6.436 -1.513,13.063 -5.296,18.273 -0.749,1.033 -1.618,2.023 -2.751,2.61 -1.491,0.773 -3.263,0.758 -4.931,0.554 -2.913,-0.356 -5.761,-1.236 -8.366,-2.585 -1.979,-1.026 -3.81,-2.314 -5.584,-3.663 -2.063,-1.568 -4.087,-3.257 -5.532,-5.407 -1.432,-2.132 -2.231,-4.622 -2.864,-7.11 -4.623,-18.171 -1.317,-37.771 -6.803,-55.7 -1.293,-4.2256 -3.538,-8.7588 -7.75,-10.0958 z M 51.9072,143.396 c 10.6721,1.647 21.3447,3.294 32.0174,4.942 -0.2706,0.706 -1.2462,0.73 -1.9957,0.63 -9.1272,-1.219 -18.2545,-2.438 -27.3817,-3.658 -1.0318,-0.137 -2.0636,-0.275 -3.0954,-0.413 -0.4899,-0.065 -1.0981,-0.243 -1.1601,-0.733 -0.0874,-0.691 0.9272,-0.874 1.6155,-0.768 z M 175.712,80.6838 c -2.254,2.5084 -2.092,6.2934 -1.796,9.6535 0.646,7.353 1.293,14.7067 1.939,22.0597 0.03,0.345 0.067,0.707 0.268,0.987 0.33,0.459 0.969,0.539 1.532,0.578 7.673,0.541 15.346,1.081 23.019,1.622 -0.573,0.907 -1.867,0.921 -2.937,0.838 -7.223,-0.557 -14.476,-0.738 -21.719,-0.541 -0.125,3.714 0.423,7.45 1.608,10.972 0.514,1.527 2.492,1.852 4.101,1.917 6.138,0.249 12.275,0.497 18.413,0.745 0.282,0.636 -0.71,1.033 -1.406,1.025 -6.308,-0.072 -12.617,-0.145 -18.925,-0.217 -0.864,-0.01 -1.177,1.214 -0.851,2.014 0.851,2.092 3.56,2.543 5.814,2.684 l 14.104,0.883 c 0.322,0.02 0.39,0.526 0.154,0.747 -0.235,0.221 -0.593,0.227 -0.915,0.22 l -16.514,-0.35 c 4.27,5.082 10.258,8.693 16.745,10.097 1.398,0.303 2.88,0.501 4.238,0.053 1.625,-0.537 2.824,-1.916 3.762,-3.348 4.976,-7.591 4.645,-17.358 4.136,-26.42 l -0.576,-10.271 c 0.201,-0.277 0.615,-0.373 0.917,-0.213 0.117,-0.503 -0.538,-0.802 -1.046,-0.896 -11.225,-2.061 -22.743,-4.127 -33.977,-2.113 -0.359,-0.147 -0.355,-0.706 -0.082,-0.982 0.273,-0.276 0.687,-0.343 1.071,-0.396 1.536,-0.211 3.072,-0.422 4.607,-0.633 -3.524,-1.5919 -5.66,-5.3731 -6.298,-9.1868 -0.638,-3.8136 -0.015,-7.713 0.614,-11.5284 z m -55.168,62.4422 c 1,0.186 2.155,0.492 2.545,1.431 -1.113,0.758 -2.575,0.681 -3.918,0.573 -0.369,-0.029 -0.773,-0.074 -1.032,-0.339 -0.46,-0.468 -0.117,-1.33 0.474,-1.615 0.591,-0.284 1.287,-0.17 1.931,-0.05 z m -76.1435,-6.861 c 11.4984,3.612 23.4139,5.897 35.4331,6.792 0.9322,0.07 2.1856,0.514 2.0066,1.432 -12.7117,-1.438 -25.3458,-3.563 -37.8284,-6.362 -0.7963,-0.179 -1.8185,-0.746 -1.5218,-1.507 0.2608,-0.668 1.2264,-0.57 1.9105,-0.355 z m 42.1156,5.576 c 0.587,-0.001 1.1538,0.2 1.7024,0.409 0.2794,0.106 0.5866,0.243 0.6946,0.521 0.2309,0.593 -0.5874,1.017 -1.2137,1.131 -0.4216,0.077 -0.8431,0.153 -1.2647,0.23 -0.3554,0.064 -0.7381,0.125 -1.0656,-0.028 -0.5317,-0.249 -0.6697,-1.016 -0.3646,-1.518 0.3047,-0.502 0.9242,-0.743 1.5116,-0.745 z m 54.1449,-1.267 c 5.086,0.967 10.296,1.022 15.473,1.074 0.401,0.003 0.509,0.634 0.223,0.914 -0.287,0.281 -0.733,0.293 -1.134,0.285 -4.833,-0.095 -9.672,-0.604 -14.491,-0.225 -0.524,0.042 -1.069,0.091 -1.561,-0.093 -0.493,-0.185 -0.913,-0.683 -0.82,-1.2 0.081,-0.447 0.516,-0.76 0.961,-0.846 0.446,-0.086 0.903,0.006 1.349,0.091 z m 11.491,-79.7339 c -5.759,0.86 -10.597,5.9854 -11.124,11.7842 -0.492,5.416 -1.987,10.6827 -3.051,16.0156 -3.417,17.1261 -2.38,34.8741 -5.402,52.0751 1.104,-2.01 1.402,-4.348 1.68,-6.624 l 7.326,-59.9969 c 0.195,-1.5964 0.394,-3.211 0.967,-4.7134 1.568,-4.1066 5.619,-6.6863 9.604,-8.5406 z m -26.184,77.7049 c 0.313,0.1 0.635,0.231 0.844,0.485 0.209,0.254 0.261,0.665 0.033,0.902 -0.173,0.179 -0.443,0.211 -0.69,0.233 -0.809,0.071 -1.619,0.143 -2.428,0.214 -0.437,0.039 -0.889,0.076 -1.305,-0.062 -0.417,-0.138 -0.792,-0.499 -0.804,-0.937 -0.02,-0.743 0.896,-1.116 1.637,-1.165 0.914,-0.059 1.839,0.053 2.713,0.33 z m 17.046,-62.1104 c -0.67,0.2405 -0.849,1.0867 -0.925,1.7944 l -2.527,23.534 c -0.15,1.394 1.65,2.283 3.009,1.938 1.358,-0.345 2.395,-1.407 3.57,-2.172 1.175,-0.764 2.831,-1.204 3.909,-0.309 1.22,1.012 3.025,-0.113 4.083,-1.2909 1.06,-1.1782 2.439,-2.5987 3.945,-2.1071 -1.767,1.6897 -3.534,3.38 -5.301,5.07 -0.585,0.56 -1.102,1.68 -0.362,2.01 2.03,-0.719 3.866,-1.981 5.265,-3.619 0.646,-0.02 0.677,0.995 0.316,1.533 -1.36,2.024 -4.561,2.475 -5.386,4.77 -1.924,5.357 -7.924,8.916 -13.548,8.035 -1.153,-0.181 -1.728,1.337 -1.867,2.496 -0.554,4.623 -1.108,9.245 -1.661,13.868 -0.127,1.063 -0.246,2.188 0.192,3.165 0.73,1.631 2.684,2.248 4.417,2.687 3.254,0.825 6.561,1.655 9.916,1.537 3.354,-0.119 6.823,-1.318 8.948,-3.918 -0.589,-0.763 -1.899,0.216 -2.756,-0.226 -0.838,-0.432 -0.393,-1.872 0.507,-2.155 0.9,-0.283 1.85,0.167 2.686,0.604 0.524,-1.024 1.064,-2.12 0.956,-3.266 -0.108,-1.146 -1.159,-2.279 -2.281,-2.022 -0.737,0.17 -1.038,-1.108 -0.443,-1.576 0.594,-0.468 1.448,-0.316 2.184,-0.141 0.041,-2.766 0.081,-5.531 0.122,-8.297 0.008,-0.564 0.011,-1.157 -0.257,-1.654 -0.268,-0.497 -0.902,-0.845 -1.411,-0.6 -0.693,0.334 -1.294,-0.846 -0.83,-1.46 0.464,-0.613 1.34,-0.693 2.108,-0.72 0.06,-2.456 -0.099,-4.917 -0.473,-7.345 -2.895,1.45 -3.401,5.277 -3.693,8.502 -0.56,6.184 -1.687,12.317 -3.361,18.296 -0.375,1.34 -0.797,2.709 -1.674,3.79 -0.876,1.08 -2.32,1.814 -3.666,1.462 0.302,-0.982 1.33,-1.51 2.083,-2.209 1.355,-1.259 1.858,-3.163 2.3,-4.96 1.527,-6.207 3.064,-12.49 3.045,-18.882 l -0.003,-0.429 c -0.01,-1.217 -0.023,-2.452 0.379,-3.595 0.448,-1.278 1.572,-2.434 2.926,-2.44 1.428,-0.007 1.769,-1.988 1.641,-3.41 -0.44,-4.9044 -0.88,-9.809 -1.32,-14.7131 -0.141,-1.5665 -0.284,-3.1474 -0.76,-4.6463 -1.757,-5.5427 -8.53,-8.8943 -14.002,-6.929 z m 21.548,59.8134 c 0.671,0.18 1.323,0.87 1.044,1.507 -0.266,0.608 -1.103,0.641 -1.763,0.579 -0.324,-0.031 -0.668,-0.07 -0.92,-0.274 -0.443,-0.358 -0.381,-1.117 0.034,-1.507 0.415,-0.39 1.056,-0.453 1.605,-0.305 z m -80.6585,-0.68 c 0.4414,0.096 0.9018,0.224 1.2191,0.546 0.3174,0.321 0.4225,0.895 0.1068,1.218 -0.2578,0.264 -0.6735,0.269 -1.0424,0.256 -0.5304,-0.019 -1.0609,-0.038 -1.5914,-0.056 -0.3072,-0.011 -0.6355,-0.029 -0.8824,-0.212 -0.5266,-0.392 -0.2958,-1.31 0.2705,-1.643 0.5659,-0.334 1.2779,-0.248 1.9198,-0.109 z m -40.8712,-4.812 c 2.9693,1.381 6.2318,1.983 9.4581,2.545 6.531,1.138 13.0818,2.163 19.6483,3.074 0.9187,0.127 1.9366,0.308 2.4966,1.048 -2.543,0.173 -5.0844,-0.25 -7.5979,-0.672 -8.2861,-1.392 -16.5723,-2.783 -24.8584,-4.174 -0.8685,-0.146 -1.9898,-0.629 -1.8206,-1.493 0.2005,-1.025 1.7273,-0.769 2.6739,-0.328 z m 51.5598,-29.35 c -0.2882,1.158 -0.233,2.369 -0.1937,3.561 0.246,7.442 -0.1958,14.907 -1.3175,22.268 -0.2671,1.755 0.7811,3.51 2.2223,4.546 1.4411,1.036 3.2165,1.481 4.9598,1.817 3.929,0.757 7.944,1.068 11.943,0.923 1.521,-0.055 3.105,-0.195 4.405,-0.985 1.232,-0.748 2.066,-1.993 2.802,-3.232 3.118,-5.259 5.163,-11.15 5.972,-17.209 -11.217,-0.052 -22.367,-4.283 -30.7929,-11.689 z m 29.3379,29.507 c 0.766,0.253 1.532,0.506 2.298,0.758 0.255,0.084 0.529,0.182 0.68,0.404 0.256,0.376 0.008,0.925 -0.388,1.148 -0.396,0.223 -0.877,0.211 -1.331,0.193 -0.827,-0.033 -1.74,-0.103 -2.318,-0.696 -0.577,-0.592 -0.379,-1.872 0.447,-1.925 0.209,-0.014 0.413,0.053 0.612,0.118 z m 40.145,0.111 c 0.456,0.073 0.937,0.157 1.288,0.456 0.351,0.299 0.495,0.891 0.171,1.221 -0.13,0.132 -0.311,0.2 -0.487,0.261 -0.677,0.236 -1.43,0.425 -2.101,0.168 -0.67,-0.257 -1.127,-1.143 -0.706,-1.724 0.388,-0.535 1.184,-0.486 1.835,-0.382 z M 45.006,106.247 c -0.4718,0.224 -0.9769,0.479 -1.2099,0.947 -0.1738,0.348 -0.165,0.756 -0.1519,1.145 0.1764,5.302 0.3988,10.794 2.7701,15.54 0.6406,1.282 1.4551,2.515 2.6084,3.365 0.6984,0.515 1.4981,0.872 2.2911,1.225 1.3758,0.613 2.7549,1.226 4.1834,1.704 3.2718,1.096 6.7348,1.467 10.1662,1.831 1.4551,0.155 3.0047,0.294 4.31,-0.368 1.5365,-0.778 2.3552,-2.465 3.0161,-4.055 3.6854,-8.871 5.7895,-18.395 6.1837,-27.9929 0.0561,-1.3635 -1.6898,-1.9657 -3.0516,-2.0573 C 65.2498,96.8012 54.8524,101.58 45.006,106.247 Z m 35.8556,-7.0433 c -0.2789,0.3667 -0.3135,0.8573 -0.3414,1.3173 -0.6503,10.854 -3.3516,21.581 -7.9194,31.449 4.3517,-2.203 7.594,-6.479 8.5398,-11.264 0.3249,-1.645 0.3912,-3.329 0.457,-5.004 0.2068,-5.283 0.4136,-10.567 0.6204,-15.8501 0.0109,-0.2786 0.013,-0.5849 -0.1642,-0.8001 -0.2929,-0.3558 -0.9132,-0.2153 -1.1922,0.1519 z M 82.664,125.64 c 0.552,0.03 1.0711,0.259 1.6079,0.392 0.4806,0.12 0.6258,0.804 0.3574,1.221 -0.2684,0.416 -0.7858,0.597 -1.2761,0.666 -0.5124,0.072 -1.0627,0.045 -1.5032,-0.226 -0.4402,-0.271 -0.7259,-0.837 -0.5503,-1.323 0.1882,-0.52 0.8119,-0.76 1.3643,-0.73 z m 81.728,-1.435 c 0.517,0.107 0.959,0.426 1.384,0.738 0.231,0.169 0.476,0.359 0.552,0.635 0.096,0.353 -0.136,0.732 -0.456,0.908 -0.321,0.175 -0.705,0.188 -1.069,0.159 -0.517,-0.042 -1.052,-0.17 -1.442,-0.512 -0.39,-0.342 -0.589,-0.942 -0.346,-1.401 0.248,-0.465 0.861,-0.634 1.377,-0.527 z M 41.5654,107.791 c -0.1414,0.252 -0.1131,0.561 -0.0802,0.848 l 0.7668,6.754 c 0.4165,3.665 0.9618,7.615 3.5238,10.269 0.4271,-0.202 0.1861,-0.844 -0.0832,-1.233 -2.0754,-2.995 -2.475,-6.803 -2.8118,-10.431 -0.1971,-2.126 -0.3946,-4.253 -0.5917,-6.379 -0.1983,-0.21 -0.5828,-0.079 -0.7237,0.172 z m 136.6156,13.836 c 7.038,0.174 14.077,0.347 21.116,0.521 1.077,0.027 2.158,0.054 3.223,0.214 -0.222,0.77 -1.234,0.914 -2.035,0.907 -7.059,-0.067 -14.141,-0.504 -21.161,0.23 -0.6,0.063 -1.248,0.125 -1.769,-0.18 -0.521,-0.305 -0.754,-1.141 -0.275,-1.508 0.248,-0.191 0.588,-0.191 0.901,-0.184 z m -19.339,-1.383 c 0.155,0.051 0.313,0.105 0.44,0.207 0.421,0.343 0.264,1.075 -0.166,1.405 -0.431,0.33 -1.011,0.369 -1.553,0.382 -0.565,0.014 -1.223,-0.031 -1.545,-0.495 -0.403,-0.583 0.076,-1.445 0.745,-1.681 0.668,-0.236 1.405,-0.039 2.079,0.182 z m 5.146,-1.422 c 0.656,0.071 1.295,0.301 1.846,0.665 0.421,0.278 0.337,0.977 -0.046,1.305 -0.383,0.328 -0.93,0.374 -1.434,0.356 -0.51,-0.018 -1.042,-0.096 -1.455,-0.396 -0.412,-0.3 -0.658,-0.88 -0.436,-1.34 0.251,-0.525 0.946,-0.653 1.525,-0.59 z M 93.0809,102.759 c -0.3832,5.524 -0.555,11.063 -0.5149,16.601 0.0017,0.233 0.1612,0.566 0.3608,0.444 0.4242,-4.654 0.6322,-9.328 0.6234,-14.002 -0.0021,-1.036 -0.0228,-2.109 -0.4693,-3.043 z m -7.5244,14.172 c 0.6039,0.045 1.1369,0.396 1.6289,0.749 0.1515,0.109 0.3077,0.225 0.3921,0.391 0.1755,0.344 -0.0346,0.787 -0.3646,0.988 -0.3296,0.201 -0.7377,0.217 -1.1234,0.199 -0.8778,-0.041 -1.9814,-0.518 -1.883,-1.391 0.0675,-0.603 0.7461,-0.982 1.35,-0.936 z m 79.8935,-3.722 c 0.588,0.242 1.193,0.872 0.889,1.43 -0.205,0.377 -0.706,0.459 -1.136,0.463 -0.5,0.006 -0.999,-0.035 -1.491,-0.121 -0.692,-0.121 -0.798,-1.209 -0.261,-1.662 0.537,-0.452 1.349,-0.376 1.999,-0.11 z M 233.943,102.4 c 0.242,0.406 0.246,0.905 0.243,1.377 -0.02,3.343 -0.041,6.686 -0.061,10.029 -0.003,0.406 -0.057,0.898 -0.426,1.068 -0.318,0.147 -0.711,-0.059 -0.888,-0.362 -0.177,-0.303 -0.193,-0.671 -0.199,-1.022 -0.052,-2.984 0.281,-6.039 -0.564,-8.902 -0.251,-0.851 -0.552,-1.913 0.105,-2.509 0.513,-0.466 1.434,-0.274 1.79,0.321 z m -85.945,-0.387 c -2.534,1.572 -5.199,3.189 -8.174,3.403 -0.541,0.039 -0.784,0.685 -0.891,1.217 -0.481,2.393 -0.746,4.83 -0.791,7.27 -0.003,0.149 -0.002,0.309 0.085,0.431 0.137,0.194 0.417,0.202 0.653,0.189 2.321,-0.121 4.673,-0.363 6.828,-1.232 2.155,-0.869 4.116,-2.443 4.994,-4.594 0.878,-2.151 0.456,-4.895 -1.338,-6.372 -0.385,-0.318 -0.941,-0.576 -1.366,-0.312 z m -19.399,9.41 c 0.814,0.213 1.628,0.427 2.442,0.641 0.304,0.08 0.643,0.186 0.788,0.465 0.172,0.328 -0.028,0.752 -0.338,0.955 -0.31,0.203 -0.696,0.241 -1.065,0.274 -0.585,0.052 -1.187,0.102 -1.749,-0.071 -0.561,-0.173 -1.079,-0.625 -1.143,-1.209 -0.064,-0.585 0.497,-1.205 1.065,-1.055 z M 15.6629,66.8748 c 3.0469,1.234 5.3405,3.9036 6.7631,6.8674 1.4222,2.9637 2.07,6.2314 2.6346,9.4699 0.9343,5.3603 1.6783,10.8317 0.9972,16.2296 -0.6815,5.3983 -2.938,10.7813 -7.1214,14.2603 3.0474,0.163 6.6859,0.042 8.3402,-2.522 0.7423,-1.151 2.3405,-1.66 3.6115,-1.151 -0.7992,-0.692 -0.1958,-1.978 0.3976,-2.852 2.4303,-3.583 4.0981,-7.7007 4.694,-11.9887 C 37.1356,86.8738 34.23,78.4472 29.9192,71.2439 27.1221,66.5706 20.5983,64.5711 15.6629,66.8748 Z m 72.2467,43.0712 c 0.6288,0.247 0.4823,1.286 -0.1051,1.62 -0.5879,0.334 -1.3205,0.184 -1.975,0.017 -0.3055,-0.077 -0.6296,-0.168 -0.8368,-0.406 -0.4845,-0.554 0.0713,-1.49 0.7883,-1.656 0.7166,-0.165 1.4441,0.155 2.1286,0.425 z M 110.514,69.9352 c -2.69,0.0477 -5.514,0.3756 -7.71,1.9303 -0.727,0.514 -1.386,1.1871 -1.652,2.0366 -0.265,0.8491 -0.042,1.8927 0.695,2.3915 1.863,1.2614 2.621,3.6209 2.97,5.8428 0.349,2.2214 0.433,4.5479 1.446,6.5563 0.522,1.0356 1.27,1.9391 2.056,2.7928 4.257,4.6287 9.809,8.0528 15.856,9.7785 1.063,0.303 2.416,0.96 2.191,2.042 -8.699,-1.824 -16.633,-7.0741 -21.713,-14.369 -1.543,4.7409 -4.588,8.9808 -8.5877,11.958 7.8017,6.639 17.8967,10.528 28.1367,10.84 0.463,0.014 0.988,-0.004 1.301,-0.346 0.205,-0.225 0.269,-0.54 0.325,-0.839 1.449,-7.793 2.47,-15.6664 3.058,-23.5715 0.201,-2.7047 0.348,-5.4536 -0.237,-8.1017 -0.584,-2.6481 -1.995,-5.2224 -4.301,-6.6496 -1.421,-0.8795 -3.084,-1.2741 -4.729,-1.5674 -3.002,-0.5355 -6.056,-0.7786 -9.105,-0.7246 z m 53.456,37.9278 c 0.705,0.001 1.595,0.207 1.719,0.901 0.123,0.692 -0.665,1.208 -1.362,1.297 -0.511,0.065 -1.065,0.003 -1.469,-0.314 -0.405,-0.317 -0.593,-0.939 -0.312,-1.37 0.288,-0.441 0.897,-0.514 1.424,-0.514 z m 52.12,-13.8969 c -1.294,5.0152 -2.05,10.1519 -2.804,15.2769 -0.037,0.255 -0.059,0.556 0.134,0.728 2.018,-2.508 3.869,-5.149 5.538,-7.902 0.164,-0.271 0.326,-0.627 0.142,-0.885 -0.419,-0.584 -0.837,-1.169 -1.255,-1.7537 -0.31,-0.4334 -0.63,-1.0052 -0.357,-1.4631 0.222,-0.3726 0.719,-0.4511 1.15,-0.4912 l 3.546,-0.3262 c -0.038,-0.2199 -0.172,-0.409 -0.302,-0.59 -0.949,-1.3213 -1.985,-2.7106 -3.505,-3.29 -0.843,-0.3211 -2.061,-0.1768 -2.287,0.6963 z M 51.873,42.0814 c -2.592,0.4351 -5.3996,1.1846 -6.9037,3.3398 -0.8419,1.2065 -1.1516,2.6962 -1.3989,4.1462 -0.9728,5.7034 -1.2766,11.5208 -0.9031,17.2948 11.1739,-5.1988 24.2482,-6.1863 36.0763,-2.725 1.0031,0.2938 2.2446,1.1834 1.7179,2.086 -8.8727,-3.2815 -18.7557,-3.771 -27.9091,-1.382 -2.9621,0.7731 -5.8406,1.8361 -8.7854,2.6713 -4.3771,1.2411 -8.8972,1.9746 -13.4418,2.1818 8.2769,11.2376 9.3479,27.3289 2.6333,39.5647 4.1779,-0.791 8.103,-2.546 11.9551,-4.346 5.7507,-2.688 11.477,-5.522 17.586,-7.2471 6.1094,-1.7252 12.7143,-2.2894 18.7739,-0.398 0.709,0.2212 1.0993,-0.8018 1.1276,-1.5437 l 1.3133,-34.403 C 83.9136,56.1094 83.93,50.3468 80.5181,46.4023 77.499,42.9119 72.5755,41.8201 67.9773,41.4277 62.6101,40.9694 57.1852,41.1897 51.873,42.0814 Z m 80.055,63.8536 c 0.17,0.111 0.345,0.25 0.385,0.449 0.08,0.403 -0.411,0.66 -0.806,0.772 -0.574,0.163 -1.167,0.326 -1.76,0.264 -0.594,-0.063 -1.198,-0.404 -1.394,-0.968 -0.195,-0.565 0.197,-1.305 0.794,-1.316 0.979,-0.018 1.962,0.264 2.781,0.799 z m 84.284,-21.6481 c -2.162,1.212 -4.744,1.6547 -7.186,1.2323 0.313,0.871 1.682,1.1744 1.689,2.0999 0.004,0.5634 -0.527,0.9601 -0.829,1.4357 -0.232,0.3663 -0.332,0.7984 -0.425,1.2217 -0.87,3.9838 -1.37,8.0481 -1.49,12.1235 -0.02,0.703 0.154,1.63 0.853,1.707 1.446,0.158 2.809,0.969 3.637,2.166 0.679,-4.274 1.358,-8.5472 2.038,-12.8205 0.157,-0.9917 0.29,-2.099 -0.291,-2.9177 -0.8,-1.1268 -0.104,-2.6701 0.597,-3.8601 z M 87.5125,102.757 c 0.7381,0.148 1.5775,0.785 1.2977,1.483 -0.1722,0.431 -0.6921,0.605 -1.1551,0.629 -0.4629,0.025 -0.9444,-0.044 -1.3778,0.121 -0.5103,0.193 -1.1108,-0.259 -1.1728,-0.801 -0.0625,-0.542 0.3144,-1.068 0.8052,-1.306 0.4908,-0.238 1.0681,-0.232 1.6028,-0.126 z m 76.4485,-0.66 c 0.465,0.065 0.956,0.167 1.294,0.492 0.338,0.326 0.432,0.945 0.071,1.247 -0.119,0.099 -0.269,0.152 -0.416,0.202 -0.639,0.218 -1.322,0.432 -1.978,0.269 -0.655,-0.161 -1.225,-0.857 -0.998,-1.493 0.261,-0.733 1.256,-0.823 2.027,-0.717 z m 42.337,-8.7846 c -0.492,0.1186 -0.851,0.5296 -1.176,0.9187 l -1.956,2.3422 c -0.382,0.4575 0.291,1.0955 0.885,1.1453 0.594,0.0498 1.288,-0.0899 1.711,0.3304 0.443,0.4406 0.26,1.2087 -0.103,1.7172 -0.362,0.5088 -0.877,0.9238 -1.096,1.5088 -0.328,0.875 0.215,1.971 1.109,2.24 0.486,0.146 1.167,-0.079 1.172,-0.586 0.024,-2.9649 0.198,-5.9286 0.519,-8.8764 0.054,-0.5034 -0.572,-0.8588 -1.065,-0.7402 z m -99.241,1.4724 c 0.374,0.249 0.617,0.6474 0.866,1.0217 2.146,3.2127 5.735,5.4215 9.57,5.8875 0.887,0.108 1.934,0.216 2.379,0.991 -0.836,0.828 -2.198,0.727 -3.343,0.461 -4.061,-0.945 -7.781,-3.2907 -10.384,-6.5474 -0.415,-0.5195 -0.794,-1.3095 -0.331,-1.7868 0.313,-0.3228 0.868,-0.276 1.243,-0.027 z m 97.132,-14.1972 c -2.867,0.7043 -5.731,1.699 -8.055,3.5204 -2.324,1.8214 -4.052,4.5889 -4.034,7.5417 0.023,3.7445 -1.817,7.4556 -4.811,9.7043 l 5.041,0.593 c 0.591,0.069 1.252,0.12 1.714,-0.254 0.677,-0.547 0.504,-1.596 0.333,-2.4488 -0.171,-0.8525 -0.133,-1.9792 0.678,-2.2928 1.007,-0.3895 1.841,1.0078 1.688,2.0767 -0.153,1.0689 -0.773,2.0979 -0.579,3.1599 2.388,0.339 4.783,0.624 7.184,0.856 -0.478,-0.392 -0.53,-1.135 -0.288,-1.703 0.241,-0.569 0.71,-1.004 1.166,-1.4212 0.486,-0.4439 -0.214,-1.2268 -0.869,-1.2972 -0.654,-0.0701 -1.424,0.0869 -1.885,-0.3824 -0.574,-0.5836 -0.143,-1.5623 0.346,-2.2185 0.95,-1.2732 2.127,-2.8076 1.516,-4.2737 -1.491,-3.5748 -1.163,-7.8548 0.855,-11.1604 z M 94.2212,70.8198 c -0.3997,9.7859 -0.3448,19.5905 0.1641,29.3722 3.7382,-2.029 6.4697,-5.5979 8.1637,-9.4994 1.033,-2.3801 1.725,-5.0034 1.312,-7.5649 -0.308,-1.9105 -1.213,-3.6753 -2.264,-5.2992 -1.8657,-2.8815 -4.3011,-5.4827 -7.3758,-7.0087 z m 86.6818,-4.6886 c 1.342,-0.2473 2.369,1.41 2.14,2.7558 -0.229,1.3457 -1.207,2.4155 -1.985,3.5377 -1.074,1.5504 -1.808,3.306 -2.535,5.0463 -1.729,4.1412 -2.402,8.7183 -1.938,13.1819 0.273,2.6279 0.994,5.3275 2.771,7.2826 1.776,1.9552 4.822,2.9325 7.164,1.7092 2.011,-1.0513 3.014,-3.3685 3.475,-5.5904 0.462,-2.2218 0.543,-4.5476 1.415,-6.6428 1.607,-3.8656 5.571,-6.2006 9.493,-7.6667 -5.895,-0.8009 -11.228,-4.9079 -13.509,-10.4025 -0.653,-1.5758 -1.144,-3.3524 -2.5,-4.3868 -1.357,-1.0347 -3.911,-0.5283 -3.991,1.1757 z m -49.826,31.5245 c 0.414,0.0794 0.821,0.2001 1.212,0.3592 0.645,0.2625 1.339,0.9883 0.923,1.5475 -0.226,0.3059 -0.662,0.3427 -1.042,0.3524 -0.694,0.0177 -1.442,0.0198 -2.009,-0.3807 -0.566,-0.4009 -0.762,-1.3698 -0.191,-1.764 0.314,-0.2161 0.733,-0.1861 1.107,-0.1144 z m 31.251,-1.6521 c 0.561,0.0477 1.12,0.1257 1.673,0.2334 0.273,0.0531 0.568,0.1274 0.74,0.3468 0.261,0.3326 0.097,0.8538 -0.233,1.1179 -0.33,0.2642 -0.768,0.3385 -1.185,0.4039 -0.638,0.0996 -1.318,0.1946 -1.906,-0.0713 -0.588,-0.2654 -0.99,-1.0428 -0.631,-1.5788 0.314,-0.4675 0.981,-0.4992 1.542,-0.4519 z M 1.89316,92.9849 c -0.47535,-0.005 -0.63976,0.6297 -0.62537,1.1049 0.04144,1.3652 0.31785,2.7232 0.81342,3.9964 0.13791,0.1405 0.29811,-0.1532 0.27882,-0.349 z m 91.34004,3.5158 c -0.2966,0.1608 -0.4097,0.587 -0.2317,0.8736 l 0.0072,0.0105 -0.0063,0.0072 c -0.008,0.0093 -0.0165,0.0207 -0.0257,0.0342 -0.1195,0.1806 0.0481,0.4671 0.2641,0.4519 0.146,-0.4439 0.1431,-0.9351 -0.0076,-1.3774 z M 87.055,94.5679 c 0.6432,0.1426 1.3412,0.6761 1.1812,1.3154 -0.1059,0.4233 -0.5515,0.6718 -0.9778,0.7664 -0.4258,0.0945 -0.8761,0.0882 -1.2833,0.2464 -0.5174,0.2009 -1.1407,-0.2165 -1.247,-0.7613 -0.1068,-0.5448 0.227,-1.1132 0.7085,-1.3897 0.4819,-0.2764 1.0761,-0.297 1.6184,-0.1772 z M 90.7771,4.42718 C 90.8147,33.8864 91.4916,63.3451 92.807,92.7752 l 0.1384,3.0427 0.0207,-0.9786 C 93.0041,92.5515 92.9707,90.2634 92.937,87.9757 92.5445,61.16 92.1516,34.3447 91.7591,7.52895 91.7427,6.40641 91.6541,5.12856 90.7771,4.42718 Z M 132.913,90.26 c 0.361,0.1081 0.723,0.2722 0.957,0.5672 0.234,0.295 0.301,0.7487 0.07,1.0458 -0.224,0.2873 -0.63,0.3418 -0.994,0.3743 l -1.55,0.1375 c -0.253,0.0224 -0.525,0.041 -0.745,-0.086 -0.178,-0.103 -0.296,-0.2908 -0.35,-0.4887 -0.163,-0.5972 0.241,-1.245 0.799,-1.5108 0.558,-0.2659 1.221,-0.2165 1.813,-0.0393 z M 8.06804,67.1998 C 6.4566,68.7831 5.61849,70.9717 4.84406,73.094 2.6862,79.0076 0.635574,85.2846 1.7003,91.4889 2.02951,91.5493 2.18642,91.1015 2.21085,90.7677 2.64856,84.7819 3.84466,78.8523 5.76151,73.1653 6.49285,70.9953 7.37253,68.7916 8.99726,67.1778 8.9749,66.7845 8.34881,66.9238 8.06804,67.1998 Z M 206.172,80.1365 c -0.281,0.0687 -0.463,0.3342 -0.61,0.5832 -1.387,2.3531 -2.04,5.1316 -1.846,7.8561 0.08,1.1246 0.442,2.4202 1.492,2.8304 0.854,-0.82 1.709,-1.6399 2.563,-2.4599 0.135,-0.1304 0.274,-0.265 0.349,-0.4376 0.188,-0.4313 -0.08,-0.9128 -0.326,-1.3137 -1.218,-1.9805 -2.132,-4.4906 -1.118,-6.5829 0.126,-0.2604 -0.223,-0.5448 -0.504,-0.4756 z m 17.747,-2.5388 c -0.136,0.0709 -0.242,0.1886 -0.344,0.3038 -2.521,2.8515 -4.956,5.779 -7.3,8.7778 -0.49,0.6262 -1.001,1.3323 -0.952,2.1256 0.042,0.7056 0.538,1.3201 1.14,1.691 0.601,0.371 1.302,0.5402 1.989,0.704 0.184,0.0438 0.384,0.0865 0.557,0.0096 0.159,-0.0704 0.26,-0.2266 0.352,-0.3743 1.435,-2.3143 2.891,-4.6741 3.568,-7.3117 0.145,-0.5625 0.632,-0.955 1.022,-1.3859 0.766,-0.8457 1.215,-1.9716 1.24,-3.1123 0.009,-0.3861 -0.036,-0.7938 -0.26,-1.1086 -0.223,-0.3153 -0.67,-0.498 -1.012,-0.319 z m -61.405,11.2874 c 0.347,0.0861 0.731,0.2178 0.886,0.5402 0.275,0.5676 -0.369,1.1597 -0.972,1.3462 -0.467,0.1443 -0.988,0.1946 -1.436,-0.0013 -0.448,-0.1958 -0.788,-0.6899 -0.686,-1.1681 0.18,-0.8491 1.365,-0.9259 2.208,-0.717 z M 87.6298,87.6453 c 0.1642,0.1468 0.3161,0.3198 0.3781,0.5309 0.1254,0.4249 -0.1713,0.8938 -0.5786,1.0685 -0.4072,0.1747 -0.8824,0.1072 -1.2926,-0.0604 -0.4321,-0.1759 -0.8529,-0.5127 -0.9077,-0.9761 -0.0629,-0.5296 0.4169,-1.0174 0.9453,-1.0938 0.5279,-0.0768 1.0584,0.1747 1.4555,0.5309 z m 46.7272,-4.6582 c 0.422,0.1718 0.466,0.809 0.175,1.1593 -0.29,0.3498 -0.775,0.4663 -1.229,0.5047 -0.453,0.038 -0.922,0.0215 -1.345,0.1874 -0.652,0.2549 -1.359,-0.5317 -1.204,-1.2133 0.155,-0.6815 0.887,-1.1052 1.585,-1.1377 0.698,-0.0325 1.371,0.2359 2.018,0.4996 z m 27.435,-1.025 c 0.597,0.0291 1.188,0.1861 1.721,0.457 0.231,0.1173 0.47,0.2798 0.536,0.5309 0.136,0.517 -0.512,0.8719 -1.037,0.9723 -0.465,0.0895 -0.938,0.1426 -1.411,0.1591 -0.584,0.0203 -1.289,-0.0924 -1.522,-0.6288 -0.181,-0.4165 0.04,-0.9271 0.41,-1.1905 0.37,-0.2633 0.849,-0.3224 1.303,-0.3 z m 38.512,-38.1534 c -3.486,0.5625 -6.986,1.0284 -10.497,1.3976 -2.543,0.2672 -4.939,1.71 -6.364,3.8332 -0.293,0.4363 -0.494,1.1322 -0.042,1.3998 1.28,-1.4762 3.016,-2.5507 4.909,-3.036 0.677,-0.1734 1.417,-0.268 2.055,0.0161 0.638,0.2844 1.093,1.0668 0.805,1.7023 -0.443,0.9766 -1.857,0.7035 -2.927,0.6381 -2.977,-0.1814 -5.551,3.225 -4.564,6.039 0.693,-2.6861 4.528,-3.8521 6.678,-2.0987 2.149,1.7535 1.886,5.6047 -0.412,7.1573 -0.76,0.5127 -1.736,0.8706 -2.083,1.7193 -0.297,0.7275 -0.011,1.5492 0.275,2.2813 0.447,1.1496 0.895,2.2992 1.342,3.4483 0.938,2.4101 1.935,4.9079 3.835,6.6631 1.46,1.35 3.354,2.1531 5.286,2.6236 6.965,1.6977 14.807,-1.0039 19.249,-6.6323 0.356,-0.4511 1.168,-0.0232 1.232,0.5478 0.063,0.571 -0.327,1.0845 -0.714,1.5099 -1.989,2.189 -4.495,3.9045 -7.256,4.965 -1.305,0.5017 -2.856,1.044 -3.257,2.383 -0.332,1.1091 0.367,2.3346 1.371,2.9115 1.003,0.5773 2.226,0.6263 3.377,0.5001 2.295,-0.2507 4.516,-1.1492 6.34,-2.5646 0.553,-0.4287 1.089,-0.9301 1.334,-1.5855 0.233,-0.6207 0.18,-1.3069 0.123,-1.9674 l -0.049,-0.5676 c -0.215,-2.462 -0.494,-4.9531 -1.497,-7.2045 -0.484,-1.0833 -1.129,-2.0982 -1.485,-3.2296 -0.438,-1.3952 -0.412,-2.8916 -0.706,-4.3244 -0.295,-1.4323 -1.041,-2.9199 -2.405,-3.4482 0.36,-0.9149 1.259,-1.491 1.841,-2.2839 0.582,-0.793 0.667,-2.178 -0.249,-2.5363 -0.438,-0.1713 -0.937,-0.0236 -1.354,0.1933 -1.76,0.9136 -2.709,3.1499 -2.144,5.0502 0.369,1.2403 -1.591,2.0725 -2.646,1.323 -1.055,-0.7491 -1.315,-2.1755 -1.523,-3.4525 -0.806,-4.9506 -2.425,-10.2873 -6.652,-12.9856 -0.37,-0.2359 -0.793,-0.4554 -1.226,-0.3857 z M 87.2605,78.924 c 0.5558,0.1802 1.1099,0.6799 0.9943,1.2526 -0.1093,0.5414 -0.7326,0.795 -1.277,0.8883 -0.7723,0.1321 -1.7796,-0.0194 -1.9969,-0.7723 -0.2064,-0.7166 0.5435,-1.4032 1.285,-1.4817 0.3342,-0.0354 0.6748,0.0093 0.9946,0.1131 z M 176.404,68.6131 c -0.518,0.4912 -0.77,1.1922 -1.006,1.8661 -0.531,1.5209 -1.069,3.0857 -1.008,4.6953 0.039,1.0364 -0.562,1.9695 -0.991,2.9135 -0.429,0.9441 -0.662,2.1531 0.011,2.9423 1.606,-1.3509 1.992,-3.6251 2.345,-5.6942 0.423,-2.4738 0.997,-5.0379 2.597,-6.9716 -0.56,-0.4427 -1.429,-0.2426 -1.948,0.2486 z m -42.335,6.8939 c 0.414,0.133 0.882,0.3988 0.887,0.8335 0.006,0.5283 -0.644,0.771 -1.164,0.8664 -0.261,0.0477 -0.521,0.0953 -0.782,0.143 -0.664,0.1212 -1.375,0.238 -1.993,-0.0354 -0.617,-0.2735 -1.028,-1.1065 -0.625,-1.648 0.261,-0.3502 0.74,-0.4456 1.176,-0.4726 0.843,-0.0523 1.697,0.0544 2.501,0.3131 z M 73.6929,67.8767 c 0.7263,0.3477 1.5391,1.0322 1.2699,1.7914 -7.4844,-1.6319 -15.4802,-0.825 -22.4876,2.2696 -3.1533,1.3922 -6.1128,3.2334 -9.3762,4.3433 -1.1162,0.3798 -2.335,0.6714 -3.463,0.327 -1.1281,-0.3443 -2.0683,-1.5411 -1.7387,-2.6734 0.3097,-1.0626 1.4931,-1.5678 2.5418,-1.9227 5.1675,-1.7496 10.4253,-3.233 15.7451,-4.4433 5.8043,-1.32 12.1387,-2.2603 17.5087,0.3081 z M 181.16,67.7872 c -0.535,-0.0021 -0.984,0.3899 -1.336,0.7925 -0.852,0.9766 -1.458,2.1481 -1.909,3.3635 -0.56,1.5099 -0.891,3.1047 -0.978,4.7125 1.548,-2.662 3.202,-5.262 4.958,-7.7915 0.305,-0.4389 -0.201,-1.0749 -0.735,-1.077 z m -9.484,4.7425 c -0.146,9e-4 -0.301,0.0064 -0.425,0.0849 -0.279,0.1768 -0.24,0.5895 -0.157,0.909 0.262,1.0132 0.625,2.0003 1.082,2.9422 0.274,-1.3272 0.714,-2.6198 1.306,-3.8386 -0.599,-0.0683 -1.203,-0.1008 -1.806,-0.0975 z M 54.3966,69.1089 c -4.4303,1.3614 -8.8605,2.7233 -13.2903,4.0847 -0.5292,0.1624 -1.1433,0.4135 -1.2564,0.9558 0.3604,0.5254 1.0466,0.7487 1.683,0.7179 0.6364,-0.0309 1.2403,-0.2752 1.8303,-0.5162 4.4943,-1.8366 8.9887,-3.6727 13.4831,-5.5093 -0.8026,-0.2241 -1.653,0.0224 -2.4497,0.2671 z m 46.7494,2.4853 c -0.238,0.4127 -0.733,0.5878 -1.104,0.8862 -0.3714,0.2988 -0.5892,0.9419 -0.1976,1.2128 0.6006,-0.6009 1.2006,-1.2019 1.8006,-1.8024 -0.124,-0.1536 -0.305,-0.2612 -0.499,-0.2966 z m 46.742,-0.3199 c 3.22,0.3355 6.47,0.5068 9.696,0.2287 0.834,-0.0717 1.832,-0.1055 2.328,0.5701 -0.625,0.6368 -1.608,0.7137 -2.5,0.7516 -3.348,0.1435 -6.696,0.287 -10.044,0.4305 -0.654,0.0278 -1.481,-0.0553 -1.693,-0.6736 -0.167,-0.4869 0.213,-1.0242 0.689,-1.2195 0.476,-0.1954 1.013,-0.141 1.524,-0.0878 z m 49.785,-3.5183 c 0.779,0.9478 1.064,2.2809 0.739,3.4643 -0.08,0.292 -0.196,0.5785 -0.383,0.817 -0.49,0.625 -1.394,0.8098 -2.167,0.625 -0.772,-0.1853 -1.434,-0.6769 -2.023,-1.2095 -0.608,-0.5486 -1.178,-1.174 -1.47,-1.9392 -0.292,-0.7646 -0.257,-1.6956 0.26,-2.3299 0.426,-0.5228 1.115,-0.7739 1.788,-0.8229 1.224,-0.0899 2.477,0.4473 3.256,1.3952 z M 89.1182,69.9593 c 0.3077,0.2486 0.2562,0.7651 -0.0067,1.0605 -0.2625,0.2958 -0.663,0.422 -1.047,0.5178 -0.4533,0.1131 -0.9297,0.2013 -1.3842,0.0933 -0.4545,-0.1081 -0.8803,-0.4604 -0.9365,-0.9242 -0.081,-0.6727 0.6233,-1.199 1.2927,-1.3049 0.7305,-0.1152 1.5061,0.0924 2.0817,0.5575 z M 194.108,67.9792 c -0.341,0.4414 -0.117,1.2386 0.436,1.3142 0.639,0.0873 1.136,0.7583 1.033,1.3947 -0.081,0.4997 0.528,0.917 1.012,0.7672 0.483,-0.1502 0.763,-0.6921 0.752,-1.1981 -0.011,-0.506 -0.252,-0.9778 -0.526,-1.4032 -0.302,-0.4692 -0.671,-0.925 -1.18,-1.1537 -0.509,-0.2283 -1.186,-0.1629 -1.527,0.2789 z m -1.701,-45.3643 c -4.642,0.8504 -9.242,2.8781 -12.236,6.5264 -2.994,3.6479 -4.029,9.1078 -1.689,13.2059 0.828,1.4484 2.091,2.7114 3.679,3.2212 1.588,0.5098 3.508,0.1347 4.568,-1.1537 1.201,-1.461 3.628,-0.0595 5.436,-0.6141 2.502,-0.7672 5.103,-1.2124 7.718,-1.3213 0.619,-0.0257 1.259,-0.0295 1.837,0.195 0.628,0.2435 1.125,0.7318 1.602,1.2069 1.655,1.6488 3.343,3.3457 4.323,5.4663 1.554,3.3634 1.17,7.4641 3.133,10.6064 0.229,-1.9704 0.458,-3.9407 0.687,-5.9111 0.086,-0.7313 0.181,-1.4905 0.576,-2.1113 0.395,-0.6212 1.185,-1.0567 1.877,-0.8056 1.22,0.4435 2.491,0.9195 3.366,1.8779 0.877,0.9584 1.201,2.5561 0.359,3.5445 -0.814,0.955 0.109,2.3354 0.541,3.5136 0.749,2.0408 -0.131,4.3729 0.457,6.4656 0.487,1.7332 1.896,3.0275 3.241,4.2243 0.394,0.3503 0.852,0.7233 1.377,0.6752 0.439,-0.0396 0.792,-0.3671 1.092,-0.6904 1.788,-1.9273 3.012,-4.3711 3.486,-6.9572 0.191,-1.0432 -0.172,-2.5633 -1.223,-2.4211 0.287,-2.5033 2.588,-4.2087 3.94,-6.3356 1.458,-2.2936 1.802,-5.1143 1.869,-7.8312 0.066,-2.7304 -0.2,-5.698 -2.02,-7.735 -2.186,-2.4473 -6.434,-2.6304 -8.822,-0.3798 -0.596,0.5608 -1.38,1.3023 -2.091,0.8963 0.557,-0.9985 1.114,-1.9974 1.67,-2.9958 0.908,-1.6277 1.834,-3.3141 2.018,-5.168 0.364,-3.6583 -2.42,-7.1218 -5.864,-8.4085 -3.444,-1.2863 -7.332,-0.7529 -10.787,0.5052 -0.865,0.3156 -1.888,0.9929 -1.653,1.8838 0.136,0.5161 0.658,0.8276 0.926,1.2888 0.167,0.2878 0.151,0.3798 -0.038,0.6124 -0.114,0.1409 -0.32,0.5477 -0.505,0.4684 -1.958,-2.2683 -4.076,-4.643 -6.947,-5.5005 -1.904,-0.5688 -3.949,-0.4017 -5.903,-0.0439 z m -22.243,46.7785 c -0.245,-0.1448 -0.713,-0.2401 -0.667,0.0405 0.132,0.687 0.751,1.1981 1.418,1.4082 0.668,0.2102 1.384,0.1747 2.083,0.1372 0.273,-0.0148 0.564,-0.0359 0.782,-0.2022 0.182,-0.1392 0.282,-0.3578 0.375,-0.5676 0.159,-0.3595 0.318,-0.7191 0.477,-1.0782 -1.298,-0.8453 -3.135,1.0521 -4.468,0.2621 z m -37.496,-2.3468 c 0.546,0.0409 1.088,0.1363 1.616,0.284 0.457,0.1283 0.982,0.3958 1.005,0.8698 0.029,0.6237 -0.782,0.8786 -1.405,0.9326 -0.633,0.0544 -1.267,0.1093 -1.9,0.1642 -0.461,0.0396 -0.983,0.0603 -1.323,-0.2554 -0.456,-0.4232 -0.272,-1.2449 0.222,-1.6234 0.493,-0.379 1.165,-0.4182 1.785,-0.3718 z m 14.813,-0.1355 c 3.029,0.4056 6.1,0.503 9.149,0.2912 0.357,-0.0249 0.747,-0.0456 1.041,0.1587 0.295,0.2047 0.368,0.7317 0.047,0.8904 -0.098,0.0481 -0.21,0.0532 -0.319,0.0574 -3.686,0.1388 -7.372,0.2781 -11.058,0.4174 -0.336,0.0126 -0.706,0.0143 -0.965,-0.2009 -0.462,-0.3853 -0.197,-1.2091 0.334,-1.4939 0.531,-0.2845 1.174,-0.2 1.771,-0.1203 z m 29.413,-3.0026 c -1.177,0.0637 -2.375,0.1726 -3.461,0.6292 -1.087,0.4562 -2.062,1.315 -2.386,2.4481 -0.066,0.23 -0.091,0.5128 0.086,0.6744 0.137,0.1257 0.344,0.1274 0.53,0.1203 1.955,-0.0768 3.902,-0.368 5.794,-0.8664 0.94,-0.2477 2.074,-0.8457 1.947,-1.81 -0.067,-0.5077 -0.505,-0.9048 -0.989,-1.0728 -0.484,-0.1679 -1.01,-0.1502 -1.521,-0.1228 z M 41.1269,63.7667 c -0.1873,0.9934 -0.2333,2.013 -0.1354,3.0191 0.243,0.2625 0.5629,-0.2503 0.5422,-0.6073 -0.0468,-0.8157 -0.1835,-1.626 -0.4068,-2.4118 z m 62.9481,-1.2145 c 6.776,0.3064 13.552,0.6123 20.329,0.9187 0.632,0.0287 1.472,0.2709 1.435,0.9027 -0.809,0.5195 -1.852,0.4119 -2.806,0.3009 -6.041,-0.7039 -12.152,-0.801 -18.212,-0.2899 -0.523,0.0443 -1.078,0.0869 -1.545,-0.1532 -0.467,-0.2397 -0.768,-0.8795 -0.465,-1.3083 0.265,-0.3751 0.805,-0.3916 1.264,-0.3709 z M 87.6437,61.8415 c 0.298,0.0452 0.6086,0.1228 0.8251,0.3326 0.495,0.4798 0.1894,1.3917 -0.406,1.7395 -0.5955,0.3477 -1.3331,0.2988 -2.0202,0.2393 -0.7537,-0.065 -0.998,-1.196 -0.503,-1.7678 0.495,-0.5723 1.3559,-0.6567 2.1041,-0.5436 z m 23.8323,-2.5063 c 11.044,0.5727 22.088,1.1458 33.131,1.7184 0.592,0.0308 1.375,0.2583 1.344,0.85 -1.821,0.3279 -3.707,0.2916 -5.514,-0.1068 l 1.604,1.3808 c -0.765,0.4824 -1.579,0.9803 -2.484,1.0002 -0.904,0.0202 -1.888,-0.6466 -1.863,-1.5505 0.458,-0.211 0.915,-0.422 1.373,-0.633 -8.921,-0.7647 -17.885,-1.0436 -26.836,-0.8352 -0.516,0.0119 -1.068,0.0165 -1.504,-0.2603 -0.436,-0.2769 -0.657,-0.9504 -0.296,-1.3197 0.259,-0.2642 0.676,-0.2633 1.045,-0.2439 z m 71.51,1.4766 c -0.398,0.022 -0.735,0.2861 -1.044,0.5385 -0.366,0.2992 -0.731,0.5984 -1.097,0.8976 -0.383,0.3131 -0.798,0.6875 -0.82,1.1816 -0.012,0.2684 0.192,0.5871 0.454,0.5267 0.073,-0.0169 0.136,-0.0612 0.197,-0.1042 0.871,-0.6145 1.742,-1.2289 2.613,-1.8429 0.178,-0.1254 0.368,-0.2676 0.425,-0.4769 0.106,-0.3845 -0.33,-0.7419 -0.728,-0.7204 z m 13.547,-3.2178 c 0.035,0.8959 -0.41,1.7353 -0.568,2.6177 -0.158,0.8825 0.143,2.0063 1.015,2.2126 0.258,0.0612 0.332,0.4292 0.187,0.6503 -0.145,0.2207 -0.42,0.3161 -0.68,0.3634 -0.808,0.1468 -1.765,-0.1127 -2.137,-0.8453 -0.186,-0.3667 -0.2,-0.7934 -0.211,-1.2044 -0.028,-1.101 -0.056,-2.2016 -0.084,-3.3022 -0.02,-0.7525 0.065,-1.6792 0.753,-1.9831 0.821,-0.3616 1.69,0.5951 1.725,1.491 z m -12.013,4.9932 c -0.159,0.0743 -0.267,0.2465 -0.266,0.422 l -0.039,0.0106 c 0.088,0.1962 0.406,0.2266 0.53,0.051 0.125,-0.1759 -0.01,-0.4654 -0.225,-0.4836 z m -1.523,-5.7528 c -0.366,0.0093 -0.774,0.0755 -0.99,0.3705 -0.232,0.3153 -0.138,0.7778 0.099,1.0884 0.238,0.3106 0.587,0.5102 0.913,0.7254 1.375,0.9065 2.472,2.2265 3.111,3.7436 0.435,-0.5726 0.87,-1.1449 1.305,-1.7171 0.324,-0.4275 0.667,-0.9166 0.598,-1.4488 -0.049,-0.3848 -0.307,-0.7081 -0.582,-0.9824 -1.162,-1.1626 -2.811,-1.8214 -4.454,-1.7796 z M 42.9314,47.9794 c -0.5106,0.0417 -0.7756,0.6153 -0.936,1.1018 -0.2447,0.7415 -0.4895,1.483 -0.7339,2.2244 -0.2675,0.8103 -0.5367,1.6294 -0.6098,2.4794 -0.0485,0.5629 -0.0101,1.1297 0.0283,1.6939 0.1203,1.7615 0.2401,3.5229 0.3604,5.284 0.0232,0.3405 0.2823,0.8111 0.5638,0.6182 -0.1169,-4.4994 0.33,-9.0128 1.3272,-13.4017 z m 144.4616,6.4765 c -0.464,0.1769 -0.956,0.487 -1.023,0.9787 -0.067,0.4916 0.656,0.9478 0.937,0.5385 0.358,-0.5221 1.254,-0.2494 1.55,0.3101 0.296,0.56 0.209,1.2327 0.205,1.8662 -0.005,0.633 0.141,1.3593 0.693,1.6694 0.092,-0.8469 0.185,-1.6939 0.277,-2.5409 0.115,-1.0453 0.108,-2.3421 -0.811,-2.854 -0.55,-0.3064 -1.24,-0.192 -1.828,0.032 z m 14.887,-0.4785 c 0.753,0.0337 1.556,0.2958 1.968,0.9267 0.412,0.6309 0.193,1.6644 -0.532,1.8674 -1.035,0.2899 -2.003,-1.1685 -3.015,-0.8065 -0.632,0.2267 -1.023,1.1167 -1.683,0.9888 -0.409,-0.0789 -0.636,-0.5693 -0.554,-0.9778 0.081,-0.4089 0.386,-0.736 0.713,-0.9951 0.871,-0.6895 1.994,-1.0529 3.103,-1.0035 z M 87.047,53.2325 c 0.7254,0.1173 1.4357,0.9116 1.0533,1.5391 -0.1072,0.176 -0.2819,0.3013 -0.4646,0.3971 -0.4524,0.238 -1.0103,0.3191 -1.4775,0.1114 -0.4671,-0.2076 -0.7954,-0.7465 -0.6693,-1.2415 0.1591,-0.6225 0.9242,-0.9086 1.5581,-0.8061 z M 203.46,49.1028 c 0.5,0.4747 0.888,1.3685 0.33,1.7711 -0.592,0.4263 -1.3,-0.2933 -1.865,-0.7524 -0.633,-0.5132 -1.489,-0.7398 -2.292,-0.6064 -0.514,0.0856 -0.998,0.3089 -1.513,0.3836 -0.515,0.0747 -1.115,-0.0435 -1.396,-0.482 -0.295,-0.4595 -0.108,-1.1103 0.298,-1.4762 0.406,-0.3654 0.97,-0.4992 1.513,-0.549 1.785,-0.1633 3.627,0.4769 4.925,1.7113 z M 87.0221,47.6481 c 0.4452,0.2612 0.6853,0.8769 0.4376,1.3297 -0.3279,0.5984 -1.1862,0.5904 -1.8484,0.4258 -0.2384,-0.059 -0.4895,-0.1375 -0.6473,-0.3257 -0.3769,-0.4495 0.0455,-1.1542 0.5718,-1.4138 0.4629,-0.2287 1.0407,-0.2772 1.4863,-0.016 z"
           fill="#00160a"
           id="path371" />
      </g>
    </g>
  </g>
</svg>
