<svg width="20" height="22" viewBox="0 0 20 22" fill="none" xmlns="http://www.w3.org/2000/svg">
<path d="M0.500397 7.85988L9.5004 13.0599C9.65242 13.1477 9.82486 13.1939 10.0004 13.1939C10.1759 13.1939 10.3484 13.1477 10.5004 13.0599L19.5004 7.85988C19.6515 7.77263 19.7772 7.64734 19.8649 7.49647C19.9526 7.3456 19.9993 7.1744 20.0004 6.99988C20.0011 6.82367 19.9552 6.65041 19.8674 6.49763C19.7796 6.34485 19.653 6.21799 19.5004 6.12988L10.5004 0.939883C10.3484 0.852115 10.1759 0.805908 10.0004 0.805908C9.82486 0.805908 9.65242 0.852115 9.5004 0.939883L0.500397 6.12988C0.347792 6.21799 0.221178 6.34485 0.133375 6.49763C0.0455716 6.65041 -0.000302856 6.82367 0.000396711 6.99988C0.00145008 7.1744 0.0481556 7.3456 0.135871 7.49647C0.223587 7.64734 0.349259 7.77263 0.500397 7.85988ZM10.0004 2.99988L17.0004 6.99988L10.0004 10.9999L3.0004 6.99988L10.0004 2.99988ZM18.5004 10.1699L10.0004 14.9999L1.5004 10.1299C1.38626 10.0638 1.26018 10.0209 1.1294 10.0037C0.998619 9.98651 0.865733 9.99537 0.738393 10.0298C0.611053 10.0642 0.491775 10.1234 0.387428 10.2041C0.283081 10.2848 0.195727 10.3853 0.130397 10.4999C2.43336e-05 10.7295 -0.0342419 11.0014 0.0350749 11.2561C0.104392 11.5109 0.271665 11.728 0.500397 11.8599L9.5004 17.0599C9.65242 17.1477 9.82486 17.1939 10.0004 17.1939C10.1759 17.1939 10.3484 17.1477 10.5004 17.0599L19.5004 11.8599C19.7291 11.728 19.8964 11.5109 19.9657 11.2561C20.035 11.0014 20.0008 10.7295 19.8704 10.4999C19.8051 10.3853 19.7177 10.2848 19.6134 10.2041C19.509 10.1234 19.3897 10.0642 19.2624 10.0298C19.1351 9.99537 19.0022 9.98651 18.8714 10.0037C18.7406 10.0209 18.6145 10.0638 18.5004 10.1299V10.1699ZM18.5004 14.1699L10.0004 18.9999L1.5004 14.1299C1.38626 14.0638 1.26018 14.0209 1.1294 14.0037C0.998619 13.9865 0.865733 13.9954 0.738393 14.0298C0.611053 14.0642 0.491775 14.1234 0.387428 14.2041C0.283081 14.2848 0.195727 14.3853 0.130397 14.4999C2.43336e-05 14.7295 -0.0342419 15.0014 0.0350749 15.2561C0.104392 15.5109 0.271665 15.728 0.500397 15.8599L9.5004 21.0599C9.65242 21.1477 9.82486 21.1939 10.0004 21.1939C10.1759 21.1939 10.3484 21.1477 10.5004 21.0599L19.5004 15.8599C19.7291 15.728 19.8964 15.5109 19.9657 15.2561C20.035 15.0014 20.0008 14.7295 19.8704 14.4999C19.8051 14.3853 19.7177 14.2848 19.6134 14.2041C19.509 14.1234 19.3897 14.0642 19.2624 14.0298C19.1351 13.9954 19.0022 13.9865 18.8714 14.0037C18.7406 14.0209 18.6145 14.0638 18.5004 14.1299V14.1699Z" fill="#2C9AB7"/>
</svg>
